# xmcd
#
# Track frame offsets:
#   150
#   9087
#   14545
#   20590
#   27307
#   35637
#   42245
#   45775
#   52137
#   60165
#   65827
#   68620
#   74870
#   81157
#   85922
#   91765
#   99097
#   105610
#   111302
#   115985
#   124945
#   130455
#   139045
#   144550
#   148112
#   152747
#   158665
#   165022
#   170212
#   175565
#   179672
#   187270
#   193260
#   197470
#   200902
#   206470
#   212395
#   217640
#   223002
#   228910
#
# Disc length: 3103 seconds
#
# Revision: 0
# Processed by: cddbd v1.5PL3 Copyright (c) Steve Scherf et al.
# Submitted via: Media_Universe 3.0
#
DISCID=3f0c1d28
DTITLE=Various Artist - Hooked On Country Music
DYEAR=1900
DGENRE=Country
TTITLE0=You Needed Me
TTITLE1=Talking In Your Sleep
TTITLE2=I Honestly Love You
TTITLE3=Eay From Now On
TTITLE4=Hopelessly Devoted To You
TTITLE5=Single Woman
TTITLE6=Come On Over
TTITLE7=Blue Bayou
TTITLE8=The Ways To Love A Man
TTITLE9=I Was Country When Country Wasn't Cool
TTITLE10=Luckenbach Texas
TTITLE11=Stand By Your Man
TTITLE12=D.I.V.O.R.C.E.
TTITLE13=Here You Come Again
TTITLE14=You're No Good
TTITLE15=Save The Last Dance For Me
TTITLE16=Beautiful Woman
TTITLE17=Blue Kentucky Girl
TTITLE18=Tumblin' Dice
TTITLE19=Tenessee Rose
TTITLE20=Half The Way
TTITLE21=Singing My Song
TTITLE22=When I Stop Leavin'
TTITLE23=That'll Be The Day
TTITLE24=Coalminer's Daughter
TTITLE25=Love Or Something Like It
TTITLE26=One's On The Way
TTITLE27=Rainy Day Woman
TTITLE28=Womanhood
TTITLE29=Blue Skies
TTITLE30=Golden Ring
TTITLE31=I Wanna See Jesus( On The Midnight Special)
TTITLE32=Who Am I To Say
TTITLE33=In My Tenessee Mountain Home
TTITLE34=Isn't It Always Love
TTITLE35=Two Doors Down
TTITLE36=Nine To Five
TTITLE37=Snowbird
TTITLE38=I've Always Been Crazy
TTITLE39=Undercover Lover
EXTD=
EXTT0=
EXTT1=
EXTT2=
EXTT3=
EXTT4=
EXTT5=
EXTT6=
EXTT7=
EXTT8=
EXTT9=
EXTT10=
EXTT11=
EXTT12=
EXTT13=
EXTT14=
EXTT15=
EXTT16=
EXTT17=
EXTT18=
EXTT19=
EXTT20=
EXTT21=
EXTT22=
EXTT23=
EXTT24=
EXTT25=
EXTT26=
EXTT27=
EXTT28=
EXTT29=
EXTT30=
EXTT31=
EXTT32=
EXTT33=
EXTT34=
EXTT35=
EXTT36=
EXTT37=
EXTT38=
EXTT39=
PLAYORDER=
